#!OML:ASF F:\VICON\USERDATA\INSTALL\rory3\rory3.ASF
:FULLY-SPECIFIED
:DEGREES
300
root 4.74375 17.5304 0.525941 14.7811 5.47955 1.13135
lowerback -14.4928 2.85905 8.71653
upperback -8.18678 2.73753 0.226372
thorax -0.230054 1.1107 -4.27427
lowerneck -6.38164 9.30885 1.72192
upperneck 12.359 12.2892 1.09032
head 4.79315 6.19205 0.800338
rclavicle -3.37934e-014 -2.46493e-014
rhumerus 9.27921 75.034 -78.6318
rradius 65.4018
rwrist 1.34034
rhand -15.2988 -43.616
rfingers 7.12502
rthumb 10.8766 -73.3144
lclavicle -3.37934e-014 -2.46493e-014
lhumerus 39.0513 -40.051 32.3554
lradius 65.0122
lwrist 39.2059
lhand -16.4693 -18.0044
lfingers 7.12502
lthumb 9.74742 11.75
rfemur -1.1788 11.7434 -2.88211
rtibia -9.54166e-015
rfoot -4.4415 -31.6539
rtoes -3.18927
lfemur -18.8549 -1.93137 -27.0738
ltibia 20.6033
lfoot -14.7156 6.78186
ltoes 4.68948
301
root 4.75289 17.5266 0.53436 14.6616 5.42405 1.27901
lowerback -14.4549 2.85768 8.63772
upperback -8.22172 2.75208 0.144093
thorax -0.283745 1.11555 -4.31694
lowerneck -6.33865 9.3758 1.65547
upperneck 12.3772 12.3628 1.29225
head 4.77447 6.23821 0.872293
rclavicle 1.72943e-014 7.15625e-015
rhumerus 11.5534 75.2982 -76.4172
rradius 65.8634
rwrist 1.31721
rhand -15.2602 -43.5223
rfingers 7.12502
rthumb 10.9138 -73.2186
lclavicle 1.72943e-014 7.15625e-015
lhumerus 39.4829 -39.6224 31.7003
lradius 64.8705
lwrist 39.1028
lhand -16.5291 -17.9298
lfingers 7.12502
lthumb 9.68972 11.8273
rfemur -1.02061 11.8066 -3.06581
rtibia 2.22639e-014
rfoot -5.18411 -31.5289
rtoes -0.777959
lfemur -18.5799 -1.93425 -27.2754
ltibia 20.4344
lfoot -14.6397 6.80157
ltoes 4.68103
302
root 4.76116 17.5266 0.537068 14.6723 5.39295 1.35712
lowerback -14.447 2.89077 8.61361
upperback -8.296 2.80419 0.087968
thorax -0.358681 1.13615 -4.35664
lowerneck -6.3768 9.3578 1.54009
upperneck 12.4334 12.3245 1.50102
head 4.77717 6.22722 0.952211
rclavicle -2.5842e-015 1.03368e-014
rhumerus 13.8512 75.4017 -74.1531
rradius 66.3032
rwrist 1.14751
rhand -15.6134 -43.4589
rfingers 7.12502
rthumb 10.5731 -73.173
lclavicle -2.5842e-015 1.03368e-014
lhumerus 39.9298 -39.1728 31.1476
lradius 64.741
lwrist 39.034
lhand -16.3982 -18.2588
lfingers 7.12502
lthumb 9.81599 11.4924
rfemur -1.03958 11.8123 -3.21097
rtibia -3.18055e-015
rfoot -4.91615 -31.4884
rtoes -0.698625
lfemur -18.5572 -1.99557 -27.3794
ltibia 20.3745
lfoot -14.5862 6.83201
ltoes 4.87798
303
root 4.76837 17.5292 0.538522 14.8438 5.64123 1.23532
lowerback -14.5838 2.86765 8.74833
upperback -8.42346 2.75091 0.120531
thorax -0.429529 1.09953 -4.40396
lowerneck -6.45481 9.32037 1.49921
upperneck 12.5452 12.2684 1.57993
head 4.81699 6.20242 0.986134
rclavicle -1.05356e-014 7.15625e-015
rhumerus 15.4154 75.3267 -72.6561
rradius 66.6251
rwrist 1.0429
rhand -15.6022 -43.3395
rfingers 7.12502
rthumb 10.5839 -73.053
lclavicle -1.05356e-014 7.15625e-015
lhumerus 40.2793 -38.7293 30.6128
lradius 64.6866
lwrist 39.2149
lhand -16.2375 -18.5042
lfingers 7.12502
lthumb 9.97103 11.2396
rfemur -1.13124 11.5468 -3.07463
rtibia 1.59028e-014
rfoot -4.21814 -31.5127
rtoes -1.80392
lfemur -18.8195 -1.99207 -27.2285
ltibia 20.3849
lfoot -14.4944 6.57815
ltoes 4.92984
304
root 4.77476 17.5293 0.546307 14.9652 5.84789 1.00418
lowerback -14.7912 2.84829 8.95793
upperback -8.51026 2.68224 0.20201
thorax -0.42253 1.05778 -4.44068
lowerneck -6.60858 9.33847 1.47403
upperneck 12.8462 12.2754 1.74179
head 4.92364 6.21416 1.05689
rclavicle -7.95139e-015 -2.22639e-014
rhumerus 17.4545 75.3538 -70.7277
rradius 66.892
rwrist 0.819967
rhand -15.2195 -42.7694
rfingers 7.12502
rthumb 10.953 -72.4637
lclavicle -7.95139e-015 -2.22639e-014
lhumerus 40.5404 -38.2461 30.0738
lradius 64.5807
lwrist 39.3784
lhand -16.1938 -18.8964
lfingers 7.12502
lthumb 10.0132 10.8454
rfemur -1.19802 11.3607 -2.81225
rtibia 1.90833e-014
rfoot -4.14578 -31.5243
rtoes -1.63236
lfemur -19.0145 -1.88774 -26.9779
ltibia 20.4512
lfoot -14.4663 6.36112
ltoes 4.58178
305
root 4.78561 17.5265 0.567513 14.8659 5.64629 0.904586
lowerback -14.9016 2.92244 9.06581
upperback -8.54004 2.75453 0.234031
thorax -0.385394 1.09126 -4.45272
lowerneck -6.65895 9.39769 1.35427
upperneck 13.1847 12.3247 2.10182
head 5.0057 6.25611 1.19855
rclavicle -1.33186e-014 -3.26007e-014
rhumerus 19.6372 75.5507 -68.635
rradius 67.2093
rwrist 0.439715
rhand -15.3573 -42.2895
rfingers 7.12502
rthumb 10.8201 -71.9908
lclavicle -1.33186e-014 -3.26007e-014
lhumerus 40.7231 -37.8225 29.626
lradius 64.46
lwrist 39.592
lhand -16.0634 -18.7538
lfingers 7.12502
lthumb 10.139 10.9819
rfemur -1.17783 11.5961 -2.79736
rtibia 0
rfoot -3.8677 -31.556
rtoes -2.10531
lfemur -18.8233 -1.77182 -26.9525
ltibia 20.5481
lfoot -14.6368 6.47697
ltoes 4.40037
306
root 4.79982 17.5253 0.590241 14.7687 5.47932 0.882
lowerback -14.9762 2.98438 9.14407
upperback -8.58486 2.81989 0.215344
thorax -0.382631 1.1193 -4.50438
lowerneck -6.69084 9.43981 1.35683
upperneck 13.4223 12.3553 2.31101
head 5.07114 6.28514 1.27237
rclavicle -1.39149e-014 3.18055e-015
rhumerus 21.5145 75.7579 -66.7995
rradius 67.6054
rwrist 0.149247
rhand -15.7348 -42.5535
rfingers 7.12502
rthumb 10.456 -72.2735
lclavicle -1.39149e-014 3.18055e-015
lhumerus 40.9306 -37.4121 29.2454
lradius 64.328
lwrist 39.6612
lhand -15.8912 -17.8775
lfingers 7.12502
lthumb 10.3052 11.85
rfemur -1.10914 11.783 -2.86334
rtibia -2.22639e-014
rfoot -3.54189 -31.5558
rtoes -2.64987
lfemur -18.6306 -1.77595 -26.9994
ltibia 20.63
lfoot -14.7817 6.60245
ltoes 4.60808
307
root 4.80763 17.5283 0.596622 14.8991 5.57505 0.813448
lowerback -14.9901 2.96016 9.18504
upperback -8.76572 2.79268 0.218436
thorax -0.574062 1.09096 -4.53173
lowerneck -6.72903 9.48946 1.45517
upperneck 13.6501 12.3996 2.40726
head 5.14818 6.31816 1.29994
rclavicle 2.20651e-014 -1.74931e-014
rhumerus 23.564 75.9256 -64.8101
rradius 67.9779
rwrist 0.145218
rhand -15.4305 -42.6318
rfingers 7.12502
rthumb 10.7495 -72.3367
lclavicle 2.20651e-014 -1.74931e-014
lhumerus 41.1801 -37.0025 28.8819
lradius 64.0873
lwrist 39.5419
lhand -15.6233 -17.4514
lfingers 7.12502
lthumb 10.5636 12.2632
rfemur -1.19226 11.6586 -2.82167
rtibia -1.90833e-014
rfoot -5.0284 -31.3054
rtoes 1.09893
lfemur -18.7899 -1.82565 -26.9219
ltibia 20.6619
lfoot -14.782 6.52697
ltoes 4.86654
308
root 4.81087 17.5301 0.599821 15.0641 5.6694 0.745052
lowerback -14.9756 2.93483 9.17367
upperback -8.99488 2.77672 0.234491
thorax -0.833092 1.06613 -4.51608
lowerneck -6.65242 9.54717 1.56528
upperneck 13.8426 12.4604 2.47148
head 5.19799 6.35841 1.30979
rclavicle -6.75868e-015 -1.51076e-014
rhumerus 25.1854 75.907 -63.2601
rradius 68.3139
rwrist 0.399701
rhand -14.8762 -42.038
rfingers 7.12502
rthumb 11.2842 -71.7145
lclavicle -6.75868e-015 -1.51076e-014
lhumerus 41.4932 -36.6651 28.4598
lradius 63.7842
lwrist 39.5545
lhand -15.4501 -18.3744
lfingers 7.12502
lthumb 10.7307 11.3316
rfemur -1.32215 11.5231 -2.77852
rtibia -6.36111e-015
rfoot -8.21814 -30.6128
rtoes 8.9469
lfemur -19.0001 -1.80075 -26.842
ltibia 20.6394
lfoot -14.7335 6.43071
ltoes 4.89031
309
root 4.81895 17.5254 0.619936 14.8956 5.49333 0.72519
lowerback -14.9276 2.96565 9.2004
upperback -8.97273 2.81665 0.266368
thorax -0.829438 1.08636 -4.49219
lowerneck -6.73564 9.61557 1.63934
upperneck 13.9449 12.5515 2.41615
head 5.25195 6.40281 1.29701
rclavicle 5.02925e-014 -1.59028e-015
rhumerus 27.8803 75.8704 -60.6022
rradius 68.6866
rwrist 0.415729
rhand -14.6885 -41.48
rfingers 7.12502
rthumb 11.4652 -71.1465
lclavicle 5.02925e-014 -1.59028e-015
lhumerus 41.7721 -36.1527 28.0254
lradius 63.6027
lwrist 39.8429
lhand -15.574 -19.2722
lfingers 7.12502
lthumb 10.6111 10.4399
rfemur -1.19203 11.7458 -2.82363
rtibia -3.18055e-015
rfoot -6.65268 -30.5819
rtoes 5.99011
lfemur -18.734 -1.78367 -26.8764
ltibia 20.5711
lfoot -14.7278 6.6579
ltoes 4.88384
310
root 4.82989 17.516 0.648986 14.6303 5.19165 0.810063
lowerback -14.8996 2.93111 9.14248
upperback -8.73714 2.76431 0.359778
thorax -0.601904 1.08028 -4.36485
lowerneck -7.30295 9.80498 1.2981
upperneck 14.0368 12.8096 2.61285
head 5.33782 6.52357 1.45677
rclavicle -1.55052e-014 -7.95139e-016
rhumerus 33.2667 76.03 -55.3269
rradius 69.081
rwrist 0.085931
rhand -14.9331 -41.7735
rfingers 7.12502
rthumb 11.2292 -71.453
lclavicle -1.55052e-014 -7.95139e-016
lhumerus 41.9295 -35.2307 27.7019
lradius 63.6009
lwrist 40.1499
lhand -15.6625 -17.981
lfingers 7.12502
lthumb 10.5257 11.7355
rfemur -0.965349 12.096 -2.99982
rtibia -9.54166e-015
rfoot -4.76255 -30.6544
rtoes 1.59475
lfemur -18.2388 -1.75546 -27.0645
ltibia 20.4729
lfoot -14.782 6.99775
ltoes 4.87742
